# xmcd
#
# Track frame offsets: 
#        187
#        17027
#        37202
#        58752
#        75822
#        96310
#        114720
#        132075
#        152785
#        167695
#
# Disc length: 2541 seconds
#
# Revision: 2
# Processed by: cddbd v1.5.2PL0 Copyright (c) Steve Scherf et al.
# Submitted via: ExactAudioCopy v0.99pb5
#
DISCID=7b09eb0a
DTITLE=Annabel Lamb - When Angels Travel
DYEAR=1986
DGENRE=Pop
TTITLE0=Rope Bridge
TTITLE1=When Angels Travel
TTITLE2=Mixing
TTITLE3=Traitor Traitor
TTITLE4=Green Mansions
TTITLE5=The Truth Hurts
TTITLE6=African Affair
TTITLE7=Wolf
TTITLE8=Homecoming
TTITLE9=Inferno
EXTD=all tracks written by Annabel Lamb, except "Traitor Traitor" writ
EXTD=ten by Liam Sternberg
EXTT0=
EXTT1=
EXTT2=
EXTT3=
EXTT4=
EXTT5=
EXTT6=
EXTT7=
EXTT8=
EXTT9=
PLAYORDER=
